<mxfile host="app.diagrams.net" modified="2022-09-25T15:44:20.819Z" agent="5.0 (Windows NT 10.0; Win64; x64) AppleWebKit/537.36 (KHTML, like Gecko) Chrome/105.0.0.0 Safari/537.36" etag="Q0JxUXE_UQsmYM4cmJwn" version="20.3.6" type="github">
  <diagram id="E9_SUeB8e6rohgb8nidN" name="Pagina-1">
    <mxGraphModel dx="2307" dy="1262" grid="1" gridSize="10" guides="1" tooltips="1" connect="1" arrows="1" fold="1" page="1" pageScale="1" pageWidth="827" pageHeight="1169" math="0" shadow="0">
      <root>
        <mxCell id="0" />
        <mxCell id="1" parent="0" />
        <mxCell id="hBmEXXPNKr5wDFmJFhsq-1" value="Parser" style="swimlane;fontStyle=1;align=center;verticalAlign=top;childLayout=stackLayout;horizontal=1;startSize=26;horizontalStack=0;resizeParent=1;resizeParentMax=0;resizeLast=0;collapsible=1;marginBottom=0;" vertex="1" parent="1">
          <mxGeometry x="40" y="529" width="180" height="110" as="geometry" />
        </mxCell>
        <mxCell id="hBmEXXPNKr5wDFmJFhsq-2" value="- menu: ArrayList&lt;Pietanza&gt;&#xa;- PATH: String = &quot;menu.txt&quot;" style="text;strokeColor=none;fillColor=none;align=left;verticalAlign=top;spacingLeft=4;spacingRight=4;overflow=hidden;rotatable=0;points=[[0,0.5],[1,0.5]];portConstraint=eastwest;" vertex="1" parent="hBmEXXPNKr5wDFmJFhsq-1">
          <mxGeometry y="26" width="180" height="34" as="geometry" />
        </mxCell>
        <mxCell id="hBmEXXPNKr5wDFmJFhsq-3" value="" style="line;strokeWidth=1;fillColor=none;align=left;verticalAlign=middle;spacingTop=-1;spacingLeft=3;spacingRight=3;rotatable=0;labelPosition=right;points=[];portConstraint=eastwest;strokeColor=inherit;" vertex="1" parent="hBmEXXPNKr5wDFmJFhsq-1">
          <mxGeometry y="60" width="180" height="8" as="geometry" />
        </mxCell>
        <mxCell id="hBmEXXPNKr5wDFmJFhsq-4" value="+ Parser(): void&#xa;+ parse(): ArrayList&lt;Pietanza&gt;" style="text;strokeColor=none;fillColor=none;align=left;verticalAlign=top;spacingLeft=4;spacingRight=4;overflow=hidden;rotatable=0;points=[[0,0.5],[1,0.5]];portConstraint=eastwest;" vertex="1" parent="hBmEXXPNKr5wDFmJFhsq-1">
          <mxGeometry y="68" width="180" height="42" as="geometry" />
        </mxCell>
        <mxCell id="hBmEXXPNKr5wDFmJFhsq-5" value="Form1" style="swimlane;fontStyle=1;align=center;verticalAlign=top;childLayout=stackLayout;horizontal=1;startSize=26;horizontalStack=0;resizeParent=1;resizeParentMax=0;resizeLast=0;collapsible=1;marginBottom=0;" vertex="1" parent="1">
          <mxGeometry x="320" y="520" width="200" height="230" as="geometry" />
        </mxCell>
        <mxCell id="hBmEXXPNKr5wDFmJFhsq-6" value="- componenti grafici&#xa;- menu: ArrayList&lt;Pietanza&gt;&#xa;- ordinazioni: ArrayList&lt;Pietanza&gt;&#xa;- dlf: DefaultListModel&#xa;- file: File" style="text;strokeColor=none;fillColor=none;align=left;verticalAlign=top;spacingLeft=4;spacingRight=4;overflow=hidden;rotatable=0;points=[[0,0.5],[1,0.5]];portConstraint=eastwest;" vertex="1" parent="hBmEXXPNKr5wDFmJFhsq-5">
          <mxGeometry y="26" width="200" height="84" as="geometry" />
        </mxCell>
        <mxCell id="hBmEXXPNKr5wDFmJFhsq-7" value="" style="line;strokeWidth=1;fillColor=none;align=left;verticalAlign=middle;spacingTop=-1;spacingLeft=3;spacingRight=3;rotatable=0;labelPosition=right;points=[];portConstraint=eastwest;strokeColor=inherit;" vertex="1" parent="hBmEXXPNKr5wDFmJFhsq-5">
          <mxGeometry y="110" width="200" height="8" as="geometry" />
        </mxCell>
        <mxCell id="hBmEXXPNKr5wDFmJFhsq-8" value="+ Form1(): void&#xa;+ createPietanze(): void&#xa;+ createMenu(): void&#xa;+ scriviFile(): void&#xa;+ salvaFile(String opzione): void&#xa;+ calcoloTotale(): void&#xa;+ main(String[] args): static void" style="text;strokeColor=none;fillColor=none;align=left;verticalAlign=top;spacingLeft=4;spacingRight=4;overflow=hidden;rotatable=0;points=[[0,0.5],[1,0.5]];portConstraint=eastwest;" vertex="1" parent="hBmEXXPNKr5wDFmJFhsq-5">
          <mxGeometry y="118" width="200" height="112" as="geometry" />
        </mxCell>
        <mxCell id="hBmEXXPNKr5wDFmJFhsq-9" value="Pietanza" style="swimlane;fontStyle=1;align=center;verticalAlign=top;childLayout=stackLayout;horizontal=1;startSize=26;horizontalStack=0;resizeParent=1;resizeParentMax=0;resizeLast=0;collapsible=1;marginBottom=0;" vertex="1" parent="1">
          <mxGeometry x="690" y="520" width="320" height="140" as="geometry" />
        </mxCell>
        <mxCell id="hBmEXXPNKr5wDFmJFhsq-10" value="- nome: String&#xa;- tipo: String&#xa;- prezzo: double" style="text;strokeColor=none;fillColor=none;align=left;verticalAlign=top;spacingLeft=4;spacingRight=4;overflow=hidden;rotatable=0;points=[[0,0.5],[1,0.5]];portConstraint=eastwest;" vertex="1" parent="hBmEXXPNKr5wDFmJFhsq-9">
          <mxGeometry y="26" width="320" height="54" as="geometry" />
        </mxCell>
        <mxCell id="hBmEXXPNKr5wDFmJFhsq-11" value="" style="line;strokeWidth=1;fillColor=none;align=left;verticalAlign=middle;spacingTop=-1;spacingLeft=3;spacingRight=3;rotatable=0;labelPosition=right;points=[];portConstraint=eastwest;strokeColor=inherit;" vertex="1" parent="hBmEXXPNKr5wDFmJFhsq-9">
          <mxGeometry y="80" width="320" height="8" as="geometry" />
        </mxCell>
        <mxCell id="hBmEXXPNKr5wDFmJFhsq-12" value="+ getters/setters&#xa;+ Pietanza(String nome, String tipo, double prezzo) :void&#xa;+ Pietanza(String[] params) :void&#xa;" style="text;strokeColor=none;fillColor=none;align=left;verticalAlign=top;spacingLeft=4;spacingRight=4;overflow=hidden;rotatable=0;points=[[0,0.5],[1,0.5]];portConstraint=eastwest;" vertex="1" parent="hBmEXXPNKr5wDFmJFhsq-9">
          <mxGeometry y="88" width="320" height="52" as="geometry" />
        </mxCell>
        <mxCell id="hBmEXXPNKr5wDFmJFhsq-15" value="1" style="endArrow=open;html=1;endSize=12;startArrow=diamondThin;startSize=14;startFill=0;edgeStyle=orthogonalEdgeStyle;align=left;verticalAlign=bottom;rounded=0;exitX=1;exitY=0.5;exitDx=0;exitDy=0;entryX=0;entryY=0.5;entryDx=0;entryDy=0;" edge="1" parent="1" source="hBmEXXPNKr5wDFmJFhsq-2" target="hBmEXXPNKr5wDFmJFhsq-6">
          <mxGeometry x="-1" y="3" relative="1" as="geometry">
            <mxPoint x="220" y="570" as="sourcePoint" />
            <mxPoint x="320" y="570" as="targetPoint" />
            <Array as="points">
              <mxPoint x="270" y="572" />
              <mxPoint x="270" y="588" />
            </Array>
          </mxGeometry>
        </mxCell>
        <mxCell id="hBmEXXPNKr5wDFmJFhsq-17" value="Relation" style="endArrow=open;html=1;endSize=12;startArrow=diamondThin;startSize=14;startFill=0;edgeStyle=orthogonalEdgeStyle;rounded=0;exitX=0;exitY=0.5;exitDx=0;exitDy=0;entryX=1;entryY=0.5;entryDx=0;entryDy=0;" edge="1" parent="1" source="hBmEXXPNKr5wDFmJFhsq-10" target="hBmEXXPNKr5wDFmJFhsq-6">
          <mxGeometry x="0.0768" y="12" relative="1" as="geometry">
            <mxPoint x="350" y="610" as="sourcePoint" />
            <mxPoint x="510" y="610" as="targetPoint" />
            <Array as="points">
              <mxPoint x="610" y="573" />
              <mxPoint x="610" y="588" />
            </Array>
            <mxPoint as="offset" />
          </mxGeometry>
        </mxCell>
        <mxCell id="hBmEXXPNKr5wDFmJFhsq-18" value="0..n" style="edgeLabel;resizable=0;html=1;align=left;verticalAlign=top;" connectable="0" vertex="1" parent="hBmEXXPNKr5wDFmJFhsq-17">
          <mxGeometry x="-1" relative="1" as="geometry">
            <mxPoint x="-30" y="-3" as="offset" />
          </mxGeometry>
        </mxCell>
        <mxCell id="hBmEXXPNKr5wDFmJFhsq-19" value="1" style="edgeLabel;resizable=0;html=1;align=right;verticalAlign=top;" connectable="0" vertex="1" parent="hBmEXXPNKr5wDFmJFhsq-17">
          <mxGeometry x="1" relative="1" as="geometry">
            <mxPoint x="10" y="-28" as="offset" />
          </mxGeometry>
        </mxCell>
      </root>
    </mxGraphModel>
  </diagram>
</mxfile>
